<?xml version="1.0" encoding="utf-8"?>
<!-- Generator: Adobe Illustrator 22.1.0, SVG Export Plug-In . SVG Version: 6.00 Build 0)  -->
<svg version="1.1" id="Layer_1" xmlns="http://www.w3.org/2000/svg" xmlns:xlink="http://www.w3.org/1999/xlink" x="0px" y="0px"
	 viewBox="0 0 121.3 172.1" style="enable-background:new 0 0 121.3 172.1;" xml:space="preserve">
<style type="text/css">
	.st0{fill:none;stroke:#010101;stroke-width:3;stroke-miterlimit:10;}
	.st1{fill:#FFFFFF;stroke:#010101;stroke-width:2.8225;stroke-miterlimit:10;}
	.st2{fill:none;stroke:#010101;stroke-width:2.8225;stroke-miterlimit:10;}
	.st3{fill:#010101;}
</style>
<g>
	<rect x="1.5" y="1.5" class="st0" width="118.3" height="169.1"/>
	<circle class="st0" cx="30.1" cy="39.5" r="12.1"/>
	<polyline class="st0" points="23.6,34.3 30.1,46.3 46.8,24.2 	"/>
	<circle class="st0" cx="31.1" cy="84.1" r="12.1"/>
	<polyline class="st0" points="24.6,78.9 31.1,91 47.8,68.8 	"/>
	<circle class="st0" cx="31.2" cy="132.2" r="12.1"/>
	<line class="st0" x1="53.1" y1="39.5" x2="101.1" y2="39.5"/>
	<line class="st0" x1="53.1" y1="84.1" x2="101.1" y2="84.1"/>
	<line class="st0" x1="53.1" y1="132.2" x2="101.1" y2="132.2"/>
	<g>
		<path class="st1" d="M36.3,118.3l63.4-57.9c2.2,17.4,14.2,16.4,14.2,16.4l-60.1,55.8L31.5,139L36.3,118.3z"/>
		<path class="st2" d="M99.7,60.3c5.2-7.9,25.6,12.4,14.2,16.4"/>
	</g>
	<g>
		<g>
			<path class="st3" d="M36.6,120.6c3.1-2.4,7.1,0.8,5.5,4.3c-0.6,1.4,0.6,2.8,2.1,2.1c3.1-1.6,6.1,1,5.3,4.3
				c-0.5,1.9,2.4,2.7,2.9,0.8c1.6-6-4.2-10.4-9.7-7.7c0.7,0.7,1.4,1.4,2.1,2.1c3-6.7-4.4-12.5-10.2-8
				C32.9,119.6,35.1,121.7,36.6,120.6L36.6,120.6z"/>
		</g>
	</g>
	<g>
		<g>
			<path class="st3" d="M88.9,68.8c1.1,7.7,6.1,14.3,13.3,17.4c1.8,0.8,3.3-1.8,1.5-2.6C97.2,80.7,92.8,75,91.8,68
				C91.6,66.1,88.7,66.9,88.9,68.8L88.9,68.8z"/>
		</g>
	</g>
</g>
</svg>
