<?xml version="1.0" encoding="utf-8"?>
<!-- Generator: Adobe Illustrator 22.0.1, SVG Export Plug-In . SVG Version: 6.00 Build 0)  -->
<svg version="1.1" id="Layer_1" xmlns="http://www.w3.org/2000/svg" xmlns:xlink="http://www.w3.org/1999/xlink" x="0px" y="0px"
	 viewBox="0 0 612 792" style="enable-background:new 0 0 612 792;" xml:space="preserve">
<g>
	<g>
		<path d="M60.8,464.1c-4.5-28.4-8.9-65.5,18.6-84.3c11.9-8.2,26.9-7.8,39.1-0.5c13,7.7,20.6,21.4,23.9,35.8
			c4.2,18.1,1.8,36.8-0.5,55c-0.2,1.9,2.8,1.9,3,0c3.9-31.2,7.3-72.1-22.9-92.2c-11.7-7.8-26.5-9.8-39.3-3.5
			c-11.8,5.8-20.2,17.4-24.5,29.5c-6.9,19.6-3.4,41-0.2,61C58.2,466.8,61.1,466,60.8,464.1L60.8,464.1z"/>
	</g>
</g>
<g>
	<g>
		<path d="M143.8,396.8c-0.2-21.8-1.8-44.3,5.2-65.3c6-18,20.7-34.7,40-38.4c21.7-4.1,38.4,13.2,45.5,31.9
			c8.1,21.1,10.1,45.4,11.6,67.7c1.7,25.8,0.7,51.8-2.7,77.5c-0.3,1.9,2.7,1.9,3,0c3.5-26,4.4-52.3,2.7-78.4
			c-0.8-12.2-2.2-24.5-4.2-36.6c-1.9-11.5-4-23.1-8.6-33.9c-7.4-17.5-23.1-33.2-43.5-31.7c-18.1,1.4-33.8,14.8-42.1,30.3
			c-12.4,23.2-10,51.4-9.8,76.8C140.8,398.7,143.8,398.7,143.8,396.8L143.8,396.8z"/>
	</g>
</g>
<g>
	<g>
		<path d="M248.1,409.6c3-9.2,6.1-18.4,9.1-27.6c2.6-7.8,4.6-16.1,8.3-23.5c4.3-8.5,12.1-14,21.5-8.8c7.4,4.1,11.2,12.8,14.6,20.2
			c15,32,20.2,68.1,15.7,103c-0.2,1.9,2.8,1.9,3,0c4-31.3,0.3-63.4-11.1-92.8c-4.4-11.4-9.8-27.3-21.4-33.4
			c-10.9-5.7-20.4,0.8-25.2,10.8c-3.5,7.2-5.5,15.1-8,22.6c-3.1,9.5-6.3,19-9.4,28.6C244.6,410.7,247.5,411.5,248.1,409.6
			L248.1,409.6z"/>
	</g>
</g>
<g>
	<g>
		<path d="M318.2,398.7c-3.1-30.8-1.4-62,5.4-92.2c3.3-14.7,7.7-29.2,13.2-43.2c5-12.8,10.6-27,20.8-36.6
			c11.3-10.6,26.5-9.2,36.8,2.2c10.3,11.4,13.9,28.5,18.1,42.8c9,30.7,15.3,62.2,18.9,94.1c3.9,35.4,4.4,71.1,1.6,106.6
			c-0.2,1.9,2.8,1.9,3,0c5.5-68.3-1.6-137.5-21.1-203.2c-4.1-13.9-7.8-29.8-17.4-41.2c-7.8-9.2-20-14.6-31.8-10
			c-11.2,4.4-18.5,15.6-23.7,25.9c-7,14.1-12.5,29.2-16.9,44.4c-10.3,35.8-13.7,73.5-9.9,110.5C315.4,400.7,318.4,400.7,318.2,398.7
			L318.2,398.7z"/>
	</g>
</g>
<g>
	<g>
		<path d="M438.7,437.5c-2.6-24.6-2-49.5,2.3-73.9c2.1-12.2,5.1-24.3,8.9-36.2c3.5-10.7,7.1-22,13.3-31.5
			c5.7-8.7,15.8-16.7,26.3-10.3c8.9,5.5,12.1,17.4,14.8,26.8c7.3,24.6,12.7,49.7,16.3,75.1c4.1,28.7,5.8,57.7,5.2,86.7
			c0,1.9,3,1.9,3,0c1.2-56.3-6.2-113.2-23-167.1c-2.6-8.3-6.1-17.5-13.3-23c-7-5.3-16.1-4.8-23,0.4c-7.9,5.9-12.4,15.2-16,24.1
			c-5,12.4-9.1,25.1-12.2,38.1c-7,29.7-8.9,60.4-5.7,90.7C435.9,439.4,438.9,439.4,438.7,437.5L438.7,437.5z"/>
	</g>
</g>
<g>
	<g>
		<path d="M524,392c1.9-12.7,14.1-21.6,26.8-17.8c10.8,3.2,16.7,14.2,20.1,24.2c8.3,23.8,10.4,49.9,8.1,74.9c-0.2,1.9,2.8,1.9,3,0
			c1.5-15.6,1.1-31.2-1.3-46.7c-2.1-13.5-5-28.1-11.7-40.1c-5.3-9.4-14.2-16.8-25.5-16.1c-11.6,0.7-20.7,9.5-22.4,20.8
			C520.8,393.1,523.7,393.9,524,392L524,392z"/>
	</g>
</g>
<g>
	<g>
		<path d="M102,331.2c-3.3,5.9-5.3,13.2-1.1,19.2c3.1,4.4,8.7,6.1,13.4,3.2c4.4-2.7,6.8-8.3,5.5-13.4c-1.5-6.2-7.1-10.3-13-12.1
			c-1.8-0.6-2.6,2.3-0.8,2.9c7.5,2.3,15.6,11.4,8.3,18.7c-3.9,3.9-9.5,2.3-11.9-2.5c-2.3-4.8-0.3-10.2,2.1-14.5
			C105.5,331,102.9,329.5,102,331.2L102,331.2z"/>
	</g>
</g>
<g>
	<g>
		<path d="M203.9,243.9c-5.5,6.1-12,13.6-10,22.4c1.6,6.8,8,12,15,8.9c7.9-3.5,9.3-13.7,9.1-21.3c-0.2-8.4-4.5-17.2-13.9-17.3
			c-1.9,0-1.9,3,0,3c8.5,0.1,11,9,10.9,16c-0.1,6.1-1.2,15.1-8.2,17.3c-6.5,2-10.6-5.3-10.3-10.8c0.4-6.3,5.4-11.7,9.5-16.1
			C207.4,244.6,205.2,242.5,203.9,243.9L203.9,243.9z"/>
	</g>
</g>
<g>
	<g>
		<path d="M278.7,298.6c-6.6,5.3-13.5,12.6-13.1,21.7c0.3,6.4,4.6,13.2,11.2,14.2c6.9,1.1,12.5-4.6,14.5-10.7
			c3-9.3-2.6-18.6-7.3-26.2c-1-1.6-3.6-0.1-2.6,1.5c3.6,5.7,7.8,12.2,7.7,19.2c0,5.9-4.2,13.6-11,13.3c-7.4-0.4-10.7-9.5-9.1-15.7
			c1.7-6.4,6.8-11.2,11.8-15.3C282.4,299.5,280.2,297.4,278.7,298.6L278.7,298.6z"/>
	</g>
</g>
<g>
	<g>
		<path d="M373.8,156.5c-12.2,3.9-12.3,20.5-11.3,31c0.9,9.6,8.2,20.7,19.2,16.5c10-3.8,13.4-16,11.8-25.7
			c-1.8-10.7-9.1-19.7-19.1-23.9c-1.8-0.7-2.6,2.2-0.8,2.9c14.5,6.1,24.5,28.3,11.5,40.9c-9.8,9.5-18.9-1.4-19.7-11.6
			c-0.7-8.7-1.1-23.9,9.2-27.2C376.5,158.8,375.7,155.9,373.8,156.5L373.8,156.5z"/>
	</g>
</g>
<g>
	<g>
		<path d="M476.3,226.6c-7.3,8.3-15.4,17.9-14.6,29.8c0.6,8.5,7.4,17,16.5,16.5c8.9-0.5,14.5-9.5,14.1-17.7
			c-0.5-11.6-9.5-19.9-17.7-26.9c-1.5-1.2-3.6,0.9-2.1,2.1c5.7,4.8,11.6,9.9,14.8,16.9c3.6,8,2.3,21.2-8.6,22.5
			c-10.1,1.2-15-9.9-13.7-18.3c1.4-9,7.6-16.1,13.4-22.7C479.7,227.2,477.6,225.1,476.3,226.6L476.3,226.6z"/>
	</g>
</g>
<g>
	<g>
		<path d="M547.5,330.9c-7.7,2-13.2,10.2-11.2,18.2c1.9,7.8,10.6,12.9,18.4,11.4c8-1.6,13.6-9.8,13-17.8c-0.8-9-8.9-15.3-17.5-15.7
			c-1.9-0.1-1.9,2.9,0,3c6.7,0.3,13.1,5,14.4,11.8c1.2,6.4-3.1,13.6-9.4,15.5c-6.3,1.8-13.9-2-15.8-8.4c-2-6.6,2.6-13.5,9-15.1
			C550.2,333.3,549.4,330.4,547.5,330.9L547.5,330.9z"/>
	</g>
</g>
<g>
	<g>
		<path d="M98.3,376.4c-9.8-3-20.2,0.7-26,9.1c-0.6,0.9,0.2,2.3,1.3,2.3c6-0.5,11.9-1,17.9-1.5c-0.1-1-0.3-2-0.4-2.9
			c-9.4,2-18.7,4-28.1,6.1c-1.4,0.3-1.5,2.7,0,2.9c5.9,0.9,11.9,1.8,17.8,2.6c-0.2-0.8-0.4-1.7-0.7-2.5c-4.8,3.9-9.7,7.7-14.5,11.6
			c-1.1,0.8-0.1,2.6,1.1,2.6c8.3,0,16.5-0.1,24.8-0.1c-0.1-1-0.3-2-0.4-2.9c-8.4,3.3-16.8,6.7-25.1,10c-1.6,0.6-1.3,2.8,0.4,2.9
			c6.3,0.6,12.6,1.3,18.8,1.9c-0.3-0.9-0.5-1.9-0.8-2.8c-5.9,3.3-11.8,6.6-17.8,9.9c-1.4,0.8-0.6,2.7,0.8,2.8
			c5.7,0.5,11.5,0.9,17.2,1.4c-0.3-0.9-0.5-1.9-0.8-2.8c-7.7,3.3-15.4,6.7-23.1,10c-1.5,0.6-0.6,2.7,0.8,2.8
			c7.4,0.5,14.7,1,22.1,1.5c-0.1-1-0.3-2-0.4-2.9c-7,2.7-13.9,5.4-20.9,8.1c-1.4,0.6-1.4,2.3,0,2.9c5.5,2.2,11.1,4.3,16.6,6.5
			c-0.1-0.9-0.2-1.8-0.4-2.7c-4.6,2.2-9.3,4.4-13.9,6.7c-1.3,0.6-0.7,2.3,0.4,2.7c2.3,1,4.6,1.9,6.9,2.9c1.8,0.7,2.6-2.2,0.8-2.9
			c-2.3-1-4.6-1.9-6.9-2.9c0.1,0.9,0.2,1.8,0.4,2.7c4.6-2.2,9.3-4.4,13.9-6.7c1.3-0.6,0.7-2.3-0.4-2.7c-5.5-2.2-11.1-4.3-16.6-6.5
			c0,1,0,1.9,0,2.9c7-2.7,13.9-5.4,20.9-8.1c1.6-0.6,1.4-2.8-0.4-2.9c-7.4-0.5-14.7-1-22.1-1.5c0.3,0.9,0.5,1.9,0.8,2.8
			c7.7-3.3,15.4-6.7,23.1-10c1.5-0.7,0.6-2.7-0.8-2.8c-5.7-0.5-11.5-0.9-17.2-1.4c0.3,0.9,0.5,1.9,0.8,2.8
			c5.9-3.3,11.8-6.6,17.8-9.9c1.4-0.8,0.6-2.7-0.8-2.8c-6.3-0.6-12.6-1.3-18.8-1.9c0.1,1,0.3,2,0.4,2.9c8.4-3.3,16.8-6.7,25.1-10
			c1.5-0.6,1.4-3-0.4-2.9c-8.3,0-16.5,0.1-24.8,0.1c0.4,0.9,0.7,1.7,1.1,2.6c4.8-3.9,9.7-7.7,14.5-11.6c0.8-0.7,0.4-2.3-0.7-2.5
			c-5.9-0.9-11.9-1.8-17.8-2.6c0,1,0,1.9,0,2.9c9.4-2,18.7-4,28.1-6.1c1.6-0.4,1.3-3.1-0.4-2.9c-6,0.5-11.9,1-17.9,1.5
			c0.4,0.8,0.9,1.5,1.3,2.3c5.1-7.3,14.1-10.3,22.6-7.8C99.4,379.8,100.1,376.9,98.3,376.4L98.3,376.4z"/>
	</g>
</g>
<g>
	<g>
		<path d="M173,299.5c-18.1,27.8-25.9,61.4-22,94.3c0.2,1.9,3.2,1.9,3,0c-2.4-27.9,7.9-55.7,27.9-75.2c-0.8-0.6-1.6-1.2-2.4-1.8
			c-16.6,26.9-27.2,56.9-31.1,88.3c1,0,2,0,3,0c0.4-15.2,8.1-29.3,20.8-37.9c-0.7-0.6-1.5-1.1-2.2-1.7
			c-5.6,20.9-11.2,41.9-16.8,62.8c1,0.3,1.9,0.5,2.9,0.8c2.1-8.9,8.3-16,17-19c-0.6-0.6-1.2-1.2-1.8-1.8
			c-6.8,18.5-13.5,37.1-20.3,55.6c-0.6,1.6,1.9,2.6,2.7,1.2c5.3-8.6,10.7-17.1,16-25.7c-0.9-0.4-1.8-0.8-2.7-1.2
			c-1.5,9.2-3,18.3-4.5,27.5c-0.2,1.1,0.7,2.2,1.8,1.8c11.1-3.2,19.4-12.4,21.3-23.8c0.3-1.9-2.2-2.6-2.9-0.8
			c-2.7,6.6-5.4,13.1-8.2,19.7c-0.4,0.9,0.6,1.9,1.4,1.9c4.3,0,8.6,0.1,13,0.1c1.9,0,1.9-3,0-3c-4.3,0-8.6-0.1-13-0.1
			c0.5,0.6,1,1.3,1.4,1.9c2.7-6.6,5.4-13.1,8.2-19.7c-1-0.3-1.9-0.5-2.9-0.8c-1.7,10.4-9,18.8-19.2,21.7c0.6,0.6,1.2,1.2,1.8,1.8
			c1.5-9.2,3-18.3,4.5-27.5c0.3-1.6-1.8-2.7-2.7-1.2c-5.3,8.6-10.7,17.1-16,25.7c0.9,0.4,1.8,0.8,2.7,1.2
			c6.8-18.5,13.5-37.1,20.3-55.6c0.4-1.1-0.8-2.2-1.8-1.8c-9.7,3.3-16.8,11.1-19.1,21c-0.4,1.9,2.4,2.7,2.9,0.8
			c5.6-20.9,11.2-41.9,16.8-62.8c0.3-1.2-1.1-2.5-2.2-1.7c-13.5,9.2-21.8,24.2-22.3,40.5c-0.1,2,2.8,1.9,3,0
			c3.8-30.8,14.3-60.4,30.7-86.8c0.9-1.5-1.1-3-2.4-1.8c-20.5,20.1-31.2,48.7-28.8,77.3c1,0,2,0,3,0c-3.8-32.5,3.8-65.4,21.6-92.8
			C176.6,299.4,174,297.9,173,299.5L173,299.5z"/>
	</g>
</g>
<g>
	<g>
		<path d="M269.2,365.8c-5,15.7-10.1,31.4-15.1,47.1c-0.5,1.7,1.8,2.5,2.7,1.2c3.7-5.7,8.5-10,14.4-13.2c-0.7-0.6-1.5-1.1-2.2-1.7
			c-3.7,8.8-7.4,17.7-11.1,26.5c-0.7,1.6,1.9,2.5,2.7,1.2c2.7-4.2,5.4-8.5,8-12.7c-0.9-0.4-1.8-0.8-2.7-1.2
			c-4.2,11.3-8.5,22.6-12.7,33.8c-0.5,1.4,1.5,2.5,2.5,1.5c3-3.1,6-6.2,9-9.4c-0.8-0.5-1.7-1-2.5-1.5c-2.4,7.7-4.8,15.3-7.2,23
			c-0.5,1.7,1.9,2.6,2.7,1.2c3.6-5.8,7.1-11.6,10.7-17.5c-0.9-0.4-1.8-0.8-2.7-1.2c-1,4.3-2,8.6-3,12.8c-0.3,1.2,0.7,2.1,1.8,1.8
			c0.9-0.2,1.8-0.4,2.7-0.5c-0.6-0.3-1.2-0.7-1.8-1c0.3,1.7,0.6,3.3,0.8,5c0.1,0.7,0.8,1,1.4,1.1c3.4,0.3,7.4,0.5,9.8-2.4
			c1.6-1.8,2.1-4.5,0.7-6.5c-4.2-6.1-10.7,0.7-12.9,4.7c0.9,0.1,1.8,0.2,2.7,0.4c-0.5-3.3-1.1-6.5-1.6-9.8c-0.2-1.1-1.4-1.2-2.2-0.9
			c-2.1,0.9-4.1,1.7-6.2,2.6c0.7,0.6,1.5,1.1,2.2,1.7c1.2-5.7,2.5-11.5,3.7-17.2c0.8-3.7,2.9-8.9,1.6-12.8c-2.1-6.4-10.5-5.8-13-0.2
			c0.9,0.4,1.8,0.8,2.7,1.2c3.3-12.9,6.7-25.7,10-38.6c-1,0-1.9,0-2.9,0c-0.8,1.5-1.7,3-2.5,4.5c0.7,0.3,1.5,0.6,2.2,0.9
			c-3.2-8-2.2-16.7,3.2-23.5c-0.8-0.5-1.7-1-2.5-1.5c-12.3,30.3-15.4,63.6-8.9,95.6c0.4,1.9,3.3,1.1,2.9-0.8
			c-6.4-31.5-3.3-64.3,8.9-94c0.6-1.4-1.6-2.6-2.5-1.5c-6,7.6-7.6,17.4-3.9,26.5c0.4,0.9,1.2,1.3,2.2,0.9c3.3-1.5,4.5-4.4,3.9-7.9
			c-0.3-1.5-2.5-1.4-2.9,0c-3.3,12.9-6.7,25.7-10,38.6c-0.4,1.6,2,2.8,2.7,1.2c1.9-4.3,4.5-3.7,7.7,1.9c-0.2,1.4-0.5,2.9-0.8,4.3
			c-0.5,2.4-1,4.8-1.6,7.2c-1,4.8-2.1,9.7-3.1,14.5c-0.3,1.4,1,2.2,2.2,1.7c2.1-0.9,4.1-1.7,6.2-2.6c-0.7-0.3-1.5-0.6-2.2-0.9
			c0.5,3.3,1.1,6.5,1.6,9.8c0.2,1.3,2.2,1.4,2.7,0.4c0.4-0.7,3.3-5.7,3.9-4.9c-0.2,1.6-0.3,3.2-0.5,4.9c-1.2,0-2.4-0.1-3.5-0.2
			c0.5,0.4,1,0.7,1.4,1.1c-0.3-1.7-0.6-3.3-0.8-5c-0.1-0.8-1.1-1.2-1.8-1c-0.9,0.2-1.8,0.4-2.7,0.5c0.6,0.6,1.2,1.2,1.8,1.8
			c1-4.3,2-8.6,3-12.8c0.4-1.6-1.8-2.6-2.7-1.2c-3.6,5.8-7.1,11.6-10.7,17.5c0.9,0.4,1.8,0.8,2.7,1.2c2.4-7.7,4.8-15.3,7.2-23
			c0.4-1.4-1.5-2.5-2.5-1.5c-3,3.1-6,6.2-9,9.4c0.8,0.5,1.7,1,2.5,1.5c4.2-11.3,8.5-22.6,12.7-33.8c0.6-1.6-1.9-2.5-2.7-1.2
			c-2.7,4.2-5.4,8.5-8,12.7c0.9,0.4,1.8,0.8,2.7,1.2c3.7-8.8,7.4-17.7,11.1-26.5c0.5-1.3-1.2-2.2-2.2-1.7
			c-6.4,3.4-11.5,8.2-15.5,14.3c0.9,0.4,1.8,0.8,2.7,1.2c5-15.7,10.1-31.4,15.1-47.1C272.6,364.7,269.7,363.9,269.2,365.8
			L269.2,365.8z"/>
	</g>
</g>
<g>
	<g>
		<path d="M160.9,318.4c-4.1,46.8-8.2,93.6-12.3,140.4c1,0,2,0,3,0c0.1-42.5,0.1-85,0.2-127.6c-1,0-2,0-3,0
			c5.4,44.9,10.8,89.7,16.2,134.6c0.2,1.9,2.9,2,3,0c1.7-34.2,3.4-68.4,5.1-102.7c-1,0.1-2,0.3-2.9,0.4
			c6.6,35.9,13.2,71.9,19.9,107.8c1-0.3,1.9-0.5,2.9-0.8c-4.4-22-4.5-44.5-0.5-66.5c-1,0-1.9,0-2.9,0c4.5,21.2,8.9,42.5,13.4,63.7
			c0.3,1.4,2.6,1.5,2.9,0c1.3-7.3,2.6-14.6,3.9-21.8c0.3-1.9-2.6-2.7-2.9-0.8c-1.3,7.3-2.6,14.6-3.9,21.8c1,0,1.9,0,2.9,0
			c-4.5-21.2-8.9-42.5-13.4-63.7c-0.3-1.4-2.6-1.5-2.9,0c-4.1,22.6-4,45.6,0.5,68.1c0.4,1.9,3.2,1.1,2.9-0.8
			c-6.6-35.9-13.2-71.9-19.9-107.8c-0.3-1.7-2.9-1.2-2.9,0.4c-1.7,34.2-3.4,68.4-5.1,102.7c1,0,2,0,3,0
			c-5.4-44.9-10.8-89.7-16.2-134.6c-0.2-1.9-3-2-3,0c-0.1,42.5-0.1,85-0.2,127.6c0,2,2.8,1.9,3,0c4.1-46.8,8.2-93.6,12.3-140.4
			C164,316.4,161,316.5,160.9,318.4L160.9,318.4z"/>
	</g>
</g>
<g>
	<g>
		<path d="M359.9,225.1c-24.7,58.3-38.8,120.9-41.1,184.2c-0.7,18.3-0.3,36.7,0.9,55c0.1,0.8,0.6,1.4,1.5,1.5
			c16.9,1.1,33.9,2.2,50.8,3.3c-0.1-1-0.3-2-0.4-2.9c-15.6,3-30.8-6.5-38.9-19.4c-8.6-13.8-10.4-30.5-10.7-46.4
			c-0.6-33,4.4-66,14.6-97.3c5.9-18,13.5-35.5,22.7-52.1c-0.9-0.3-1.9-0.5-2.8-0.8c1.8,53.5-48.4,101.3-29.2,155.6
			c0.6,1.7,2.7,1.3,2.9-0.4c2.7-21.2,5.5-42.5,8.2-63.7c-1,0-2,0-3,0c0.6,36.6,1.2,73.3,1.8,109.9c0,1.6,2.6,2.1,2.9,0.4
			c2-10.9,4-21.9,6-32.8c-1-0.1-2-0.3-2.9-0.4c1.7,20,13.6,37.9,31.5,46.9c1.7,0.9,3.2-1.7,1.5-2.6c-16.9-8.5-28.5-25.4-30-44.3
			c-0.1-1.6-2.6-2.2-2.9-0.4c-2,10.9-4,21.9-6,32.8c1,0.1,2,0.3,2.9,0.4c-0.6-36.6-1.2-73.3-1.8-109.9c0-2-2.8-1.9-3,0
			c-2.7,21.2-5.5,42.5-8.2,63.7c1-0.1,2-0.3,2.9-0.4c-18.9-53.6,31.1-101.6,29.3-154.8c0-1.4-2.1-2.1-2.8-0.8
			c-17.6,31.7-29.4,66.5-34.6,102.4c-2.6,17.7-3.7,35.7-3,53.6c0.7,15.9,3.4,32.8,13,45.9c9.3,12.5,24.5,20.8,40.2,17.7
			c1.7-0.3,1.2-2.8-0.4-2.9c-16.9-1.1-33.9-2.2-50.8-3.3c0.5,0.5,1,1,1.5,1.5c-4.4-62.8,2.8-126.2,21.1-186.4
			c5.3-17.4,11.6-34.6,18.7-51.3C363.2,224.8,360.6,223.3,359.9,225.1L359.9,225.1z"/>
	</g>
</g>
<g>
	<g>
		<path d="M460.5,330.5c-2.9,42.9-5.8,85.7-8.7,128.6c0.5-0.5,1-1,1.5-1.5c-8.4,0.1-8.5-14.1-9-19.7c-0.6-7.6-0.6-15.2-0.1-22.8
			c1.1-16,4.9-31.6,10.8-46.5c-1,0-1.9,0-2.9,0c6.4,19.7-3.5,39.3-3,59.2c0.3,13.5,6.5,27.7,20.1,32.3c1.9,0.6,2.6-2.2,0.8-2.9
			c-11.9-4.7-25.4-10.1-31.5-22.2c-3-6-4-13.3-0.8-19.4c3.9-7.2,14.5-10.7,19.6-2.6c0.9,1.4,3.4,0.5,2.7-1.2
			c-5.8-15.7-11.6-31.4-17.4-47.1c-0.7,0.6-1.5,1.1-2.2,1.7c4.1,1.8,8.3,3.7,12.4,5.5c0.8,0.3,2,0.2,2.2-0.9
			c2-12.1,3.9-24.2,5.9-36.4c0.4-2.8,0.9-5.6,1.3-8.4c0.3-1.9,1.7-6,1.3-7.8c-0.4-1.6-2.1-2.5-3.2-3.5c-2.3-2-4.6-4-6.9-6
			c-0.4,0.9-0.7,1.7-1.1,2.6c8.8-0.8,15-9.6,12.3-18.2c-0.6-1.8-3.5-1.1-2.9,0.8c2,6.6-2.5,13.7-9.5,14.4c-1.2,0.1-2.1,1.6-1.1,2.6
			c1.8,1.6,3.7,3.2,5.5,4.8c2.7,2.4,3.6,3.2,3,6.8c-0.8,5.3-1.7,10.5-2.5,15.8c-1.7,10.6-3.4,21.1-5.1,31.7c0.7-0.3,1.5-0.6,2.2-0.9
			c-4.1-1.8-8.3-3.7-12.4-5.5c-1.1-0.5-2.7,0.3-2.2,1.7c5.8,15.7,11.6,31.4,17.4,47.1c0.9-0.4,1.8-0.8,2.7-1.2
			c-3.7-5.9-11.1-7.9-17.3-4.8c-7.1,3.5-10.4,11.6-9.8,19.2c1.6,19.3,20.7,27.9,36.4,34.1c0.3-1,0.5-1.9,0.8-2.9
			c-17.6-5.9-19.3-27-17-42.5c2.3-15.6,7-31.3,2-46.9c-0.5-1.5-2.4-1.3-2.9,0c-7.2,17.9-11.1,37-11.3,56.4c-0.1,8.5-0.1,18,2.2,26.2
			c1.4,5.1,4.4,10.2,10.3,10.1c0.9,0,1.4-0.7,1.5-1.5c2.9-42.9,5.8-85.7,8.7-128.6C463.6,328.5,460.6,328.5,460.5,330.5L460.5,330.5
			z"/>
	</g>
</g>
<g>
	<g>
		<path d="M536.2,378.8c1.1,7.4-0.4,14.5-4.4,20.9c0.9,0.3,1.9,0.5,2.8,0.8c-0.1-5.8-0.3-11.6-0.4-17.4c0-1.6-1.9-1.9-2.8-0.8
			c-5.8,8-9.6,17-11.4,26.8c-0.2,1.2,1,2.4,2.2,1.7c4.3-2.5,8.5-4.9,12.8-7.4c-0.7-0.6-1.5-1.1-2.2-1.7c-1.8,5-3.5,10-5.3,15
			c-0.5,1.5,1.5,2.4,2.5,1.5c2.7-2.4,5.4-4.9,8.1-7.3c-0.8-0.5-1.7-1-2.5-1.5c-2.4,7.5-4.8,15.1-7.2,22.6c-0.5,1.5,1.4,2.4,2.5,1.5
			c2.1-1.8,4.1-3.6,6.2-5.3c-0.8-0.5-1.7-1-2.5-1.5c-2,8-4.1,16-6.1,23.9c-0.4,1.7,1.8,2.5,2.7,1.2c1.5-2,2.9-4,4.4-6.1
			c-0.9-0.4-1.8-0.8-2.7-1.2c-2.9,7.7-5.8,15.4-8.7,23.1c-0.5,1.4,1.5,2.5,2.5,1.5c3-3.4,6.1-6.8,9.1-10.2c-0.8-0.5-1.7-1-2.5-1.5
			c-1.3,4.6-2.7,9.2-4,13.9c-0.4,1.5,1.4,2.4,2.5,1.5c5.2-4.6,10.3-9.2,15.5-13.8c-0.7-0.7-1.4-1.4-2.1-2.1
			c-1.8,2.1-3.5,4.2-5.3,6.3c-1.2,1.5,0.9,3.6,2.1,2.1c1.8-2.1,3.5-4.2,5.3-6.3c1.2-1.5-0.7-3.4-2.1-2.1
			c-5.2,4.6-10.3,9.2-15.5,13.8c0.8,0.5,1.7,1,2.5,1.5c1.3-4.6,2.7-9.2,4-13.9c0.4-1.4-1.5-2.6-2.5-1.5c-3,3.4-6.1,6.8-9.1,10.2
			c0.8,0.5,1.7,1,2.5,1.5c2.9-7.7,5.8-15.4,8.7-23.1c0.6-1.7-1.8-2.4-2.7-1.2c-1.5,2-2.9,4-4.4,6.1c0.9,0.4,1.8,0.8,2.7,1.2
			c2-8,4.1-16,6.1-23.9c0.4-1.5-1.4-2.4-2.5-1.5c-2.1,1.8-4.1,3.6-6.2,5.3c0.8,0.5,1.7,1,2.5,1.5c2.4-7.5,4.8-15.1,7.2-22.6
			c0.5-1.5-1.5-2.4-2.5-1.5c-2.7,2.4-5.4,4.9-8.1,7.3c0.8,0.5,1.7,1,2.5,1.5c1.8-5,3.5-10,5.3-15c0.4-1.3-1.1-2.3-2.2-1.7
			c-4.3,2.5-8.5,4.9-12.8,7.4c0.7,0.6,1.5,1.1,2.2,1.7c1.7-9.5,5.4-18.2,11.1-26c-0.9-0.3-1.9-0.5-2.8-0.8
			c0.1,5.8,0.3,11.6,0.4,17.4c0,1.5,2,2,2.8,0.8c4.4-7.1,5.9-15,4.7-23.2C538.8,376.1,535.9,376.9,536.2,378.8L536.2,378.8z"/>
	</g>
</g>
<g>
	<g>
		<path d="M73.8,387.8c-12.2,12-14.4,30.8-15.3,47c-0.4,7.8,0.9,15.7,7.5,20.7c7.8,5.9,18,5.4,27.2,4.8c1.6-0.1,2-1.9,0.8-2.8
			c-20.5-15.3-14.8-40.6-8.1-61.6c0.6-1.8-2.3-2.6-2.9-0.8c-3.9,12.1-7.9,25-6.3,37.9c1.3,11,6.9,20.4,15.8,27.1
			c0.3-0.9,0.5-1.9,0.8-2.8c-8.9,0.7-19.3,1.4-26.4-4.9c-6.4-5.7-5.7-14.6-4.9-22.3c1.4-14.2,3.3-29.7,14-40.2
			C77.3,388.5,75.2,386.4,73.8,387.8L73.8,387.8z"/>
	</g>
</g>
<g>
	<g>
		<path d="M532.4,397.8c-0.3,8.6-0.5,17.1-0.8,25.7c-0.2,6.7-1.3,14.1,0.5,20.6c2.9,10.8,14.6,14.4,24.3,16.7c0.1-1,0.3-2,0.4-2.9
			c-14.3-1.2-24.4-13.8-22.4-28.1c-0.6,0.3-1.2,0.7-1.8,1c5.4,2.2,10.7,4.4,16.1,6.6c1.6,0.6,2.7-2.1,1.2-2.7
			c-11-4.9-19-14.2-22-25.8c-0.5,0.6-1,1.3-1.4,1.9c5.6,0.7,11.2,1.3,16.8,2c1.5,0.2,2-2.1,0.8-2.8c-5.2-2.7-12.1-6.3-11.9-13.1
			c0.1-7.8,8.8-7.7,14.4-6.2c1.1,0.3,2.5-1.1,1.7-2.2c-4-5.3-8.1-10.7-12.1-16c-0.4,0.8-0.9,1.5-1.3,2.3c3.8-0.2,7.6-0.4,11.4-0.5
			c1.9-0.1,1.9-3.1,0-3c-3.8,0.2-7.6,0.4-11.4,0.5c-1,0-2,1.3-1.3,2.3c4,5.3,8.1,10.7,12.1,16c0.6-0.7,1.1-1.5,1.7-2.2
			c-6.3-1.7-15.6-1.7-17.9,6c-2.8,9.1,6.3,15.2,13.1,18.8c0.3-0.9,0.5-1.9,0.8-2.8c-5.6-0.7-11.2-1.3-16.8-2c-1-0.1-1.7,1.1-1.4,1.9
			c3.2,12.3,11.8,22.4,23.4,27.6c0.4-0.9,0.8-1.8,1.2-2.7c-5.4-2.2-10.7-4.4-16.1-6.6c-0.7-0.3-1.7,0.3-1.8,1
			c-2.3,16.3,8.9,30.5,25.3,31.9c1.7,0.1,2-2.6,0.4-2.9c-11.5-2.7-22.7-6.8-22.9-20.5c-0.2-13.1,0.7-26.4,1.1-39.6
			C535.4,395.8,532.4,395.8,532.4,397.8L532.4,397.8z"/>
	</g>
</g>
</svg>
