<?xml version="1.0" encoding="utf-8"?>
<!-- Generator: Adobe Illustrator 22.0.1, SVG Export Plug-In . SVG Version: 6.00 Build 0)  -->
<svg version="1.1" id="Layer_1" xmlns="http://www.w3.org/2000/svg" xmlns:xlink="http://www.w3.org/1999/xlink" x="0px" y="0px"
	 viewBox="0 0 612 792" style="enable-background:new 0 0 612 792;" xml:space="preserve">
<style type="text/css">
	.st0{fill:#ED2024;}
</style>
<g>
	<path d="M272.8,212H257l-2.4,11.2h12.4l-1.7,7.8h-12.4l-4.4,20.4H233l10.3-47.2h31C273.6,208.1,272.8,212,272.8,212z"/>
	<path d="M299.1,229.9l-13.9,0.9c-7.7,0.5-12.2-1.9-10.4-10c1.3-6.1,5.6-8.7,11.7-8.7l7,0.8l0.3-1.4c0.5-2.5-1.3-2.3-5.3-2.3h-9.5
		l0.9-4.6l10.1-0.9c10.8,0,14.3,2.8,12.8,9.5L299.1,229.9z M288.3,217.2c-3.7,0-3.6,1.6-4.3,4.7c-0.7,3.4-0.3,3.7,2.4,3.7h4.3
		l1.9-8.4H288.3z"/>
	<path d="M329.2,209h-7.7c-3.3,0-4,1-4.5,3l10.2,5.5c-0.1,1.8-0.2,3.6-0.4,4.6c-1.5,6.7-6.3,8.8-15.5,8.8l-8-0.7l1-4.6h7.9
		c3.6,0,4.3-0.6,5-3.7l-10.3-5.4c-0.1-1.3-0.2-2.8,0-4c1.5-6.8,6.7-8.8,15.5-8.8l7.8,0.7L329.2,209z"/>
	<path d="M352,208.7l-8.9,0.7l-2.7,12.4c-0.7,3.2-0.3,3.7,2.4,3.7h5.6l-1,4.7l-5.7,0.7c-8.5,0-12.1-2.5-10.6-9.2l3.8-17.5
		c3.8-0.4,4.3-1.3,5.2-4.5h5.2l-1,4.4h8.8L352,208.7z"/>
	<path d="M327.8,282.9h-14.4l8.1-37.3l-21.7,37.3h-10.7l-5.6-37.4l-8.2,37.4h-11.2l10.3-47.2h21.1l3.9,30.3l17.9-30.3h20.5
		L327.8,282.9z"/>
	<path d="M360.4,273.3c-1.3,6-6,8.9-13.8,8.8h-1.8c-9.3,0-11.2-3.9-10.1-9l1.9-8.7c1.3-6,6.1-8.9,13.8-8.9h1.8
		c9.1,0,11.2,3.8,10.1,8.8L360.4,273.3z M353,264.5c0.5-2.3,0.6-3.6-2.6-3.6h-0.3c-3.3,0-3.9,1.5-4.4,3.8l-1.9,8.7
		c-0.7,3.2,0.1,3.6,2.2,3.6h0.6c3.3,0,3.9-1.5,4.4-3.8L353,264.5z"/>
	<path d="M388.9,281.8c-9.2,0-9.2,0-7.5-7.6l2-9.3c0.7-3.2,0.2-3.6-2.3-3.6H377l-4.5,20.6h-9.2l5.5-25.3l13.9-1c7.6-0.5,11.3,3,10,9
		L388.9,281.8z"/>
	<path d="M411.4,273.8l-6.7-0.9c-0.5,2.2-1.4,4,2.2,4h12.5l-1.1,4.5l-12.9,0.8c-8.2,0.5-11.3-3-10-9l1.9-8.7
		c1.3-5.9,6.3-8.9,13.8-8.9h1.8c7,0,11.6,2.1,9.9,9.7C421.5,271.6,419.1,273.8,411.4,273.8z M411.5,260.9h-0.9c-2.5,0-3.3,0.7-4,3.8
		l-1,4.4h2.4c4,0,4.9-0.3,5.8-4.5C414.5,261.2,414,260.9,411.5,260.9z"/>
	<path d="M450,282.2c-1.1,5.1-4.7,8.1-13,7.6l-14.5-0.8l0.9-4.4h14.6c2.2,0,2.7-1.1,2.7-1.3l0.5-2.6l-6.9,0.9c-4.6,0-9.2-1.9-7.6-9
		l3.6-16.5c9.1,0,9.1,0,7.3,8.7l-1.7,8c-0.7,3.2-0.3,3.7,2.5,3.7h3.9l4.5-20.4h9.1L450,282.2z"/>
	<polygon class="st0" points="253.5,281.2 95.9,281.2 95.9,260.9 258.3,260.9 	"/>
	<polygon class="st0" points="220.5,253.4 123,253.4 123,233.1 225.1,233.1 	"/>
	<polygon class="st0" points="228.3,225.5 143.1,225.5 143.1,205.2 231.9,205.2 	"/>
</g>
</svg>
