<?xml version="1.0" encoding="utf-8"?>
<!-- Generator: Adobe Illustrator 22.1.0, SVG Export Plug-In . SVG Version: 6.00 Build 0)  -->
<svg version="1.1" id="Layer_1" xmlns="http://www.w3.org/2000/svg" xmlns:xlink="http://www.w3.org/1999/xlink" x="0px" y="0px"
	 viewBox="0 0 360 90.2" style="enable-background:new 0 0 360 90.2;" xml:space="preserve">
<style type="text/css">
	.st0{fill:#ED2024;}
</style>
<g>
	<path d="M176.9,12.3h-15.8l-2.4,11.2h12.4l-1.7,7.8H157l-4.4,20.4h-15.5l10.3-47.2h31C177.7,8.4,176.9,12.3,176.9,12.3z"/>
	<path d="M203.2,30.2l-13.9,0.9c-7.7,0.5-12.2-1.9-10.4-10c1.3-6.1,5.6-8.7,11.7-8.7l7,0.8l0.3-1.4c0.5-2.5-1.3-2.3-5.3-2.3h-9.5
		l0.9-4.6L194.1,4c10.8,0,14.3,2.8,12.8,9.5L203.2,30.2z M192.4,17.5c-3.7,0-3.6,1.6-4.3,4.7c-0.7,3.4-0.3,3.7,2.4,3.7h4.3l1.9-8.4
		H192.4z"/>
	<path d="M233.3,9.3h-7.7c-3.3,0-4,1-4.5,3l10.2,5.5c-0.1,1.8-0.2,3.6-0.4,4.6c-1.5,6.7-6.3,8.8-15.5,8.8l-8-0.7l1-4.6h7.9
		c3.6,0,4.3-0.6,5-3.7L211,16.8c-0.1-1.3-0.2-2.8,0-4C212.5,6,217.7,4,226.5,4l7.8,0.7L233.3,9.3z"/>
	<path d="M256.1,9l-8.9,0.7l-2.7,12.4c-0.7,3.2-0.3,3.7,2.4,3.7h5.6l-1,4.7l-5.7,0.7c-8.5,0-12.1-2.5-10.6-9.2L239,4.5
		c3.8-0.4,4.3-1.3,5.2-4.5h5.2l-1,4.4h8.8L256.1,9z"/>
	<path d="M231.9,83.2h-14.4l8.1-37.3l-21.7,37.3h-10.7l-5.6-37.4l-8.2,37.4h-11.2L178.5,36h21.1l3.9,30.3L221.4,36h20.5L231.9,83.2z
		"/>
	<path d="M264.5,73.6c-1.3,6-6,8.9-13.8,8.8h-1.8c-9.3,0-11.2-3.9-10.1-9l1.9-8.7c1.3-6,6.1-8.9,13.8-8.9h1.8
		c9.1,0,11.2,3.8,10.1,8.8L264.5,73.6z M257.1,64.8c0.5-2.3,0.6-3.6-2.6-3.6h-0.3c-3.3,0-3.9,1.5-4.4,3.8l-1.9,8.7
		c-0.7,3.2,0.1,3.6,2.2,3.6h0.6c3.3,0,3.9-1.5,4.4-3.8L257.1,64.8z"/>
	<path d="M293,82.1c-9.2,0-9.2,0-7.5-7.6l2-9.3c0.7-3.2,0.2-3.6-2.3-3.6h-4.1l-4.5,20.6h-9.2l5.5-25.3l13.9-1c7.6-0.5,11.3,3,10,9
		L293,82.1z"/>
	<path d="M315.5,74.1l-6.7-0.9c-0.5,2.2-1.4,4,2.2,4h12.5l-1.1,4.5l-12.9,0.8c-8.2,0.5-11.3-3-10-9l1.9-8.7
		c1.3-5.9,6.3-8.9,13.8-8.9h1.8c7,0,11.6,2.1,9.9,9.7C325.6,71.9,323.2,74.1,315.5,74.1z M315.6,61.2h-0.9c-2.5,0-3.3,0.7-4,3.8
		l-1,4.4h2.4c4,0,4.9-0.3,5.8-4.5C318.6,61.5,318.1,61.2,315.6,61.2z"/>
	<path d="M354.1,82.5c-1.1,5.1-4.7,8.1-13,7.6l-14.5-0.8l0.9-4.4h14.6c2.2,0,2.7-1.1,2.7-1.3l0.5-2.6l-6.9,0.9c-4.6,0-9.2-1.9-7.6-9
		l3.6-16.5c9.1,0,9.1,0,7.3,8.7l-1.7,8c-0.7,3.2-0.3,3.7,2.5,3.7h3.9l4.5-20.4h9.1L354.1,82.5z"/>
	<polygon class="st0" points="157.6,81.5 0,81.5 0,61.2 162.4,61.2 	"/>
	<polygon class="st0" points="124.6,53.7 27.1,53.7 27.1,33.4 129.2,33.4 	"/>
	<polygon class="st0" points="132.4,25.8 47.2,25.8 47.2,5.5 136,5.5 	"/>
</g>
</svg>
