<?xml version="1.0" encoding="utf-8"?>
<!-- Generator: Adobe Illustrator 22.1.0, SVG Export Plug-In . SVG Version: 6.00 Build 0)  -->
<svg version="1.1" id="Layer_1" xmlns="http://www.w3.org/2000/svg" xmlns:xlink="http://www.w3.org/1999/xlink" x="0px" y="0px"
	 viewBox="0 0 290.9 245.1" style="enable-background:new 0 0 290.9 245.1;" xml:space="preserve">
<style type="text/css">
	.st0{fill:none;stroke:#000000;stroke-width:3;stroke-miterlimit:10;}
	.st1{fill:none;stroke:#000000;stroke-width:1.2779;stroke-miterlimit:10;}
	.st2{fill:#FFFFFF;stroke:#000000;stroke-width:3;stroke-miterlimit:10;}
</style>
<g>
	<rect x="86.3" y="-252" class="st0" width="118.3" height="169.1"/>
	<rect x="96.1" y="-233.7" class="st0" width="41.5" height="13.4"/>
	<rect x="96.1" y="-207.6" class="st0" width="41.5" height="13.4"/>
	<rect x="151.4" y="-152.8" class="st0" width="41.1" height="15"/>
	<line class="st0" x1="147.3" y1="-226.1" x2="192.4" y2="-226.1"/>
	<line class="st0" x1="146.7" y1="-200.9" x2="191.9" y2="-200.9"/>
	<line class="st0" x1="96.1" y1="-167.4" x2="191.9" y2="-167.4"/>
	<line class="st0" x1="97.1" y1="-145.2" x2="140.5" y2="-145.2"/>
	<line class="st0" x1="188.6" y1="-119.1" x2="99.3" y2="-118.7"/>
	<line class="st0" x1="188.6" y1="-100.1" x2="99.3" y2="-99.7"/>
</g>
<g>
	<g>
		<g id="XMLID_1_">
			<g>
				<path d="M160.7,94.3c5.6,16.4,18.5,15.1,18.5,15.1l0,0L94.5,231.6c-14.8,1.7-19.2-13.4-19.2-13.4L160.7,94.3z"/>
			</g>
			<g>
				<path class="st1" d="M207.2,69.2c-0.1,0.1-0.2,0.3-0.3,0.4c-2.2,2.9-8.1,2.5-13.4-1c-5.6-3.6-8.4-9.3-6.4-12.6
					c2-3.3,8.1-3,13.7,0.6C206.3,60.2,209.2,65.8,207.2,69.2z"/>
				<path class="st1" d="M207.2,69.2l-0.3,0.4l-27.7,39.9L94.5,231.6c-14.8,1.7-19.2-13.4-19.2-13.4l85.4-124L187.1,56"/>
				<path class="st1" d="M160.7,94.3c5.6,16.4,18.5,15.1,18.5,15.1"/>
			</g>
		</g>
	</g>
	<polygon class="st1" points="153.7,78 143.1,71.9 132.1,77.2 134.6,65.3 126.2,56.4 138.3,55.1 144.2,44.4 149.1,55.5 161.2,57.7 
		152.1,65.9 	"/>
	<polygon class="st1" points="205.5,137 201.1,132.1 194.6,133.1 197.8,127.4 194.9,121.5 201.3,122.8 206.1,118.2 206.8,124.7 
		212.6,127.8 206.6,130.6 	"/>
	<polygon class="st1" points="235.3,63.5 228.5,60.8 222.4,64.9 222.8,57.6 217.1,53.1 224.2,51.3 226.6,44.4 230.6,50.6 238,50.8 
		233.3,56.4 	"/>
	<g>
		<path d="M104.3,107v-5.8c-3.3-0.1-6.8-1.1-8.8-2.6l1.4-3.8c2,1.4,5,2.5,8.3,2.5c4.1,0,6.8-2.4,6.8-5.7c0-3.2-2.2-5.1-6.5-6.8
			c-5.9-2.3-9.5-5-9.5-10c0-4.8,3.4-8.4,8.7-9.3v-5.8h3.6v5.6c3.5,0.1,5.8,1,7.5,2l-1.5,3.8c-1.2-0.7-3.6-2-7.3-2
			c-4.5,0-6.1,2.7-6.1,5c0,3,2.1,4.5,7.2,6.6c5.9,2.4,8.9,5.4,8.9,10.5c0,4.5-3.2,8.8-9.1,9.8v6h-3.5V107z"/>
	</g>
	<g>
		<path d="M196,183.4l-3.2-4.9c-2.8,1.8-6.3,2.8-8.8,2.7l-1-4c2.5,0,5.6-0.7,8.3-2.5c3.5-2.2,4.5-5.8,2.7-8.5
			c-1.7-2.7-4.7-3.1-9.2-2.2c-6.2,1.3-10.7,1-13.4-3.2c-2.6-4-1.7-8.9,2.2-12.5l-3.2-4.9l3-2l3.1,4.7c2.9-1.8,5.4-2.3,7.3-2.4l0.9,4
			c-1.4,0.1-4.1,0.3-7.2,2.3c-3.7,2.4-3.6,5.6-2.4,7.5c1.7,2.5,4.2,2.6,9.6,1.6c6.3-1.2,10.5-0.3,13.2,4c2.5,3.8,2.2,9.1-2.3,13.2
			l3.3,5L196,183.4z"/>
	</g>
	<g>
		<path d="M235.1,123.6l-2.2-3.3c-1.9,1.2-4.3,1.9-5.9,1.8l-0.6-2.7c1.7,0,3.8-0.4,5.6-1.7c2.3-1.5,3-3.9,1.8-5.8
			c-1.2-1.8-3.2-2-6.2-1.5c-4.2,0.8-7.2,0.7-9.1-2.1c-1.8-2.7-1.2-6,1.5-8.4l-2.2-3.3l2-1.3l2,3.2c2-1.2,3.7-1.5,5-1.6l0.6,2.7
			c-1,0.1-2.7,0.2-4.9,1.6c-2.5,1.7-2.5,3.8-1.6,5c1.1,1.7,2.9,1.8,6.5,1.1c4.3-0.8,7-0.3,8.9,2.7c1.7,2.6,1.5,6.1-1.5,8.9l2.2,3.4
			L235.1,123.6z"/>
	</g>
</g>
<g>
	<rect x="503.2" y="67.6" class="st0" width="118.3" height="169.1"/>
	<circle class="st0" cx="531.8" cy="105.6" r="12.1"/>
	<polyline class="st0" points="525.3,100.4 531.8,112.4 548.5,90.3 	"/>
	<circle class="st0" cx="532.8" cy="150.2" r="12.1"/>
	<polyline class="st0" points="526.3,145 532.8,157.1 549.5,134.9 	"/>
	<circle class="st0" cx="532.9" cy="198.3" r="12.1"/>
	<polyline class="st0" points="526.4,193.1 532.9,205.2 549.6,183 	"/>
	<line class="st0" x1="554.8" y1="105.6" x2="602.8" y2="105.6"/>
	<line class="st0" x1="554.8" y1="150.2" x2="602.8" y2="150.2"/>
	<line class="st0" x1="554.8" y1="198.3" x2="602.8" y2="198.3"/>
	<g>
		<path class="st2" d="M560.5,177.9l67.4-61.5c2.3,18.5,15.1,17.4,15.1,17.4l-63.9,59.3l-23.7,6.8L560.5,177.9z"/>
		<path class="st0" d="M627.9,116.3c5.5-8.4,27.2,13.2,15.1,17.4"/>
	</g>
	<g>
		<g>
			<path d="M557.6,194.3c0.4,0.8,0.7,1.6,1.1,2.4c0.7-0.7,1.4-1.4,2.1-2.1c-0.8-0.4-1.7-0.7-2.5-1.1c-0.7-0.3-1.6-0.2-2.1,0.5
				c-0.4,0.6-0.2,1.7,0.5,2.1c0.8,0.4,1.7,0.7,2.5,1.1c0.6,0.3,1.3,0.3,1.8-0.2s0.5-1.2,0.2-1.8c-0.4-0.8-0.7-1.6-1.1-2.4
				c-0.3-0.7-1.4-0.9-2.1-0.5C557.3,192.7,557.2,193.5,557.6,194.3L557.6,194.3z"/>
		</g>
	</g>
	<g>
		<g>
			<path d="M563.6,180.6c3.1-2.4,7.1,0.8,5.5,4.3c-0.6,1.4,0.6,2.8,2.1,2.1c3.1-1.6,6.1,1,5.3,4.3c-0.5,1.9,2.4,2.7,2.9,0.8
				c1.6-6-4.2-10.4-9.7-7.7c0.7,0.7,1.4,1.4,2.1,2.1c3-6.7-4.4-12.5-10.2-8C559.9,179.6,562.1,181.7,563.6,180.6L563.6,180.6z"/>
		</g>
	</g>
	<g>
		<g>
			<path d="M618.5,125.4c1.1,7.7,6.1,14.3,13.3,17.4c1.8,0.8,3.3-1.8,1.5-2.6c-6.5-2.9-10.9-8.6-11.9-15.6
				C621.2,122.7,618.3,123.5,618.5,125.4L618.5,125.4z"/>
		</g>
	</g>
</g>
<g id="Layer_2_1_">
	<polyline class="st0" points="-410.8,119.9 -456.3,94.1 -501.8,68.4 -456.8,41.8 -411.7,15.3 	"/>
</g>
</svg>
