<?xml version="1.0" encoding="utf-8"?>
<!-- Generator: Adobe Illustrator 22.1.0, SVG Export Plug-In . SVG Version: 6.00 Build 0)  -->
<svg version="1.1" id="Layer_1" xmlns="http://www.w3.org/2000/svg" xmlns:xlink="http://www.w3.org/1999/xlink" x="0px" y="0px"
	 viewBox="0 0 164.7 189.4" style="enable-background:new 0 0 164.7 189.4;" xml:space="preserve">
<style type="text/css">
	.st0{fill:none;stroke:#000000;stroke-width:1.2779;stroke-miterlimit:10;}
</style>
<g>
	<g>
		<g id="XMLID_1_">
			<g>
				<path d="M86.1,51.3c5.6,16.4,18.5,15.1,18.5,15.1l0,0L19.9,188.6c-14.8,1.7-19.2-13.4-19.2-13.4L86.1,51.3z"/>
			</g>
			<g>
				<path class="st0" d="M132.6,26.2c-0.1,0.1-0.2,0.3-0.3,0.4c-2.2,2.9-8.1,2.5-13.4-1c-5.6-3.6-8.4-9.3-6.4-12.6s8.1-3,13.7,0.6
					C131.7,17.2,134.6,22.8,132.6,26.2z"/>
				<path class="st0" d="M132.6,26.2l-0.3,0.4l-27.7,39.9L19.9,188.6c-14.8,1.7-19.2-13.4-19.2-13.4l85.4-124L112.5,13"/>
				<path class="st0" d="M86.1,51.3c5.6,16.4,18.5,15.1,18.5,15.1"/>
			</g>
		</g>
	</g>
	<polygon class="st0" points="79.1,35 68.5,28.9 57.5,34.2 60,22.3 51.6,13.4 63.7,12.1 69.6,1.4 74.5,12.5 86.6,14.7 77.5,22.9 	
		"/>
	<polygon class="st0" points="130.9,94 126.5,89.1 120,90.1 123.2,84.4 120.3,78.5 126.7,79.8 131.5,75.2 132.2,81.7 138,84.8 
		132,87.6 	"/>
	<polygon class="st0" points="160.7,20.5 153.9,17.8 147.8,21.9 148.2,14.6 142.5,10.1 149.6,8.3 152,1.4 156,7.6 163.4,7.8 
		158.7,13.4 	"/>
	<g>
		<path d="M29.7,64v-5.8c-3.3-0.1-6.8-1.1-8.8-2.6l1.4-3.8c2,1.4,5,2.5,8.3,2.5c4.1,0,6.8-2.4,6.8-5.7c0-3.2-2.2-5.1-6.5-6.8
			c-5.9-2.3-9.5-5-9.5-10c0-4.8,3.4-8.4,8.7-9.3v-5.8h3.6v5.6c3.5,0.1,5.8,1,7.5,2l-1.5,3.8c-1.2-0.7-3.6-2-7.3-2
			c-4.5,0-6.1,2.7-6.1,5c0,3,2.1,4.5,7.2,6.6c5.9,2.4,8.9,5.4,8.9,10.5c0,4.5-3.2,8.8-9.1,9.8v6H29.7L29.7,64L29.7,64z"/>
	</g>
	<g>
		<path d="M121.4,140.4l-3.2-4.9c-2.8,1.8-6.3,2.8-8.8,2.7l-1-4c2.5,0,5.6-0.7,8.3-2.5c3.5-2.2,4.5-5.8,2.7-8.5
			c-1.7-2.7-4.7-3.1-9.2-2.2c-6.2,1.3-10.7,1-13.4-3.2c-2.6-4-1.7-8.9,2.2-12.5l-3.2-4.9l3-2l3.1,4.7c2.9-1.8,5.4-2.3,7.3-2.4l0.9,4
			c-1.4,0.1-4.1,0.3-7.2,2.3c-3.7,2.4-3.6,5.6-2.4,7.5c1.7,2.5,4.2,2.6,9.6,1.6c6.3-1.2,10.5-0.3,13.2,4c2.5,3.8,2.2,9.1-2.3,13.2
			l3.3,5L121.4,140.4z"/>
	</g>
	<g>
		<path d="M160.5,80.6l-2.2-3.3c-1.9,1.2-4.3,1.9-5.9,1.8l-0.6-2.7c1.7,0,3.8-0.4,5.6-1.7c2.3-1.5,3-3.9,1.8-5.8
			c-1.2-1.8-3.2-2-6.2-1.5c-4.2,0.8-7.2,0.7-9.1-2.1c-1.8-2.7-1.2-6,1.5-8.4l-2.2-3.3l2-1.3l2,3.2c2-1.2,3.7-1.5,5-1.6l0.6,2.7
			c-1,0.1-2.7,0.2-4.9,1.6c-2.5,1.7-2.5,3.8-1.6,5c1.1,1.7,2.9,1.8,6.5,1.1c4.3-0.8,7-0.3,8.9,2.7c1.7,2.6,1.5,6.1-1.5,8.9l2.2,3.4
			L160.5,80.6z"/>
	</g>
</g>
</svg>
